<?xml version="1.0" encoding="utf-8"?>
<!-- Generator: Adobe Illustrator 15.1.0, SVG Export Plug-In . SVG Version: 6.00 Build 0)  -->
<!DOCTYPE svg PUBLIC "-//W3C//DTD SVG 1.1//EN" "http://www.w3.org/Graphics/SVG/1.1/DTD/svg11.dtd">
<svg version="1.1" id="Ebene_1" xmlns="http://www.w3.org/2000/svg" xmlns:xlink="http://www.w3.org/1999/xlink" x="0px" y="0px"
	 width="288px" height="288px" viewBox="0 0 288 288" enable-background="new 0 0 288 288" xml:space="preserve">
<g opacity="0.77">
	<path fill="none" d="M288,274.7c0,6.284-5.095,11.378-11.377,11.378H14.926c-6.283,0-11.378-5.094-11.378-11.378V13.006
		c0-6.284,5.095-11.378,11.378-11.378h261.697c6.282,0,11.377,5.094,11.377,11.378V274.7z"/>
</g>
<circle opacity="0.54" fill="#D7D8D8" cx="149.529" cy="153.655" r="41.971"/>
<circle opacity="0.54" fill="#D7D8D8" cx="108.518" cy="142.857" r="41.97"/>
<circle opacity="0.54" fill="#D7D8D8" cx="136.424" cy="141.378" r="41.971"/>
<circle opacity="0.75" fill="#E63129" stroke="#E63129" stroke-width="12.9195" cx="175.212" cy="194.793" r="41.971"/>
<circle opacity="0.77" fill="#E2E041" stroke="#E2E041" stroke-width="12.9195" cx="105.552" cy="195.153" r="41.971"/>
<circle opacity="0.78" fill="#3FBCD3" stroke="#3FBCD3" stroke-width="14.687" cx="67.605" cy="143.558" r="47.713"/>
<circle id="XMLID_1_" opacity="0.86" fill="#E72887" stroke="#E72887" stroke-width="12.9195" cx="112.491" cy="97.671" r="45.99"/>
<circle opacity="0.81" fill="#79BD75" stroke="#79BD75" stroke-width="12.9195" cx="199.561" cy="138.755" r="52.376"/>
<circle opacity="0.86" fill="#0D71B9" stroke="#0D71B9" stroke-width="12.9195" cx="175.781" cy="97.329" r="46.564"/>
<g>
	<g>
		<path fill="#FFFFFF" stroke="#FFFFFF" stroke-width="2.2968" stroke-miterlimit="10" d="M45.444,151.859h5.333
			c0.222,4.977,0.444,8.111,0.667,9.398c2,2.445,4.2,4.258,6.6,5.434c2.4,1.18,5.155,1.768,8.267,1.768
			c4.177,0,7.377-1.002,9.6-3.004c2.222-2.002,3.333-4.428,3.333-7.275c0-1.869-0.367-3.416-1.1-4.641
			c-0.733-1.223-2.211-2.346-4.433-3.371c-1.733-0.621-5.057-1.467-9.967-2.535c-4.912-1.068-8.634-2.246-11.167-3.534
			c-2.534-1.288-4.512-3.208-5.934-5.763c-1.423-2.554-2.133-5.541-2.133-8.961c0-6.129,2.311-11.225,6.934-15.289
			c4.622-4.063,11.267-6.096,19.934-6.096c3.6,0,6.911,0.312,9.934,0.934c3.022,0.623,5.755,1.556,8.2,2.8l0.2,0.667
			c-0.267,1.556-0.466,3.133-0.6,4.733c-0.134,1.6-0.333,5.378-0.6,11.333l-5.2-0.067c-0.045-0.49-0.111-1.316-0.199-2.479
			c-0.133-2.009-0.4-3.952-0.798-5.828c-1.375-1.786-3.071-3.125-5.087-4.019c-2.017-0.894-4.377-1.341-7.081-1.341
			c-3.769,0-6.683,0.846-8.744,2.537c-2.062,1.692-3.092,3.716-3.092,6.074c0,2.404,0.467,4.185,1.4,5.341
			c0.934,1.157,2.311,2.025,4.133,2.603c1.822,0.579,5.189,1.324,10.101,2.236c4.91,0.913,8.21,1.679,9.9,2.302
			c2.444,0.935,4.4,2.114,5.867,3.538c1.467,1.424,2.589,3.193,3.367,5.305c0.777,2.113,1.167,4.439,1.167,6.975
			c0,6.629-2.567,12.213-7.7,16.75s-12.345,6.807-21.634,6.807c-3.111,0-6.133-0.277-9.067-0.832
			c-2.934-0.557-6.512-1.566-10.733-3.033l-0.733-1c0.355-3.422,0.577-5.844,0.667-7.268L45.444,151.859z"/>
		<path fill="#FFFFFF" stroke="#FFFFFF" stroke-width="2.2968" stroke-miterlimit="10" d="M94.305,217.061
			c0.982-4.219,1.617-7.166,1.907-8.842l1.3-8.752l2.253-0.434c1.443,1.502,3.091,2.83,4.941,3.986
			c2.253,0.982,4.68,1.473,7.28,1.473c3.005,0,5.779-1.027,8.322-3.08c2.542-2.055,5.374-6.553,8.495-13.494l3.467-8.332
			l-28.084-72.07c-1.676-4.278-3.265-6.922-4.767-7.934c-1.503-1.012-4.363-1.488-8.581-1.431v-6.76
			c5.662,0.231,12.596,0.347,20.801,0.347c9.707,0,18.344-0.115,25.914-0.347v6.76h-1.993c-3.583-0.057-6.067,0.348-7.454,1.214
			c-0.867,0.579-1.3,1.33-1.3,2.255c0,1.042,0.288,2.314,0.867,3.817l4.247,11.71l12.665,32.974l7.662-17.968
			c7.422-17.811,11.133-28.104,11.133-30.88c0-0.578-0.145-1.042-0.434-1.388c-0.404-0.461-1.125-0.808-2.166-1.041
			c-2.08-0.404-4.854-0.635-8.32-0.693v-6.76c3.697,0.231,8.35,0.347,13.953,0.347c6.818,0,13.174-0.115,19.068-0.347v6.76h-1.387
			c-1.561-0.057-3.033,0.231-4.42,0.867c-0.867,0.348-1.633,0.926-2.297,1.736c-0.666,0.81-2.297,3.989-4.896,9.539
			c-3.41,7.286-6.154,13.299-8.234,18.041c-6.471,14.688-10.574,24.112-12.307,28.274l-13.953,34.084
			c-4.277,10.35-8.812,17.723-13.607,22.117c-4.797,4.451-10.632,6.678-17.507,6.678c-2.253,0-4.32-0.174-6.197-0.52
			C98.797,218.619,96.674,217.982,94.305,217.061z"/>
		<path fill="#FFFFFF" stroke="#FFFFFF" stroke-width="2.2968" stroke-miterlimit="10" d="M254.742,167.916v4.943
			c-6.06-0.311-11.004-0.467-14.835-0.467c-4.412,0-8.243,0.156-11.495,0.467l-1.203-1.201c0.088-0.934,0.377-4.777,0.866-11.533
			l0.333-10.934v-5.267c0-7.777-0.3-12.889-0.899-15.333c-0.601-2.444-1.834-4.411-3.7-5.9c-1.867-1.489-4.356-2.233-7.467-2.233
			c-3.111,0-5.689,0.746-7.733,2.235c-2.045,1.491-3.334,2.99-3.867,4.498c-0.312,0.887-0.444,4.438-0.399,10.649v11.183
			c0,3.238,0.11,7.211,0.333,11.914c0.044,2.084,0.221,3.461,0.53,4.125c0.221,0.488,0.507,0.844,0.86,1.064
			c0.529,0.357,1.566,0.689,3.112,1c0.529,0.09,2.385,0.266,5.564,0.531v5.201c-4.846-0.178-10.778-0.268-17.801-0.268
			c-8.134,0-14.445,0.09-18.934,0.268v-5.201c3.467,0,5.866-0.244,7.2-0.73c0.622-0.221,1.088-0.598,1.399-1.131
			c0.444-0.842,0.688-2.438,0.733-4.787l0.267-5.916c0.044-1.242,0.067-3.258,0.067-6.051v-8.708c0-3.944-0.111-8.731-0.334-14.361
			c-0.134-2.835-0.324-4.442-0.57-4.819s-0.638-0.654-1.175-0.833c-0.852-0.311-3.381-0.531-7.588-0.665v-5.2
			c8.089-1.377,13.4-2.4,15.934-3.066c2.533-0.667,5.4-1.733,8.6-3.2l1.801,0.801v10.745l12.133-9.748
			c1.467-0.577,2.7-0.964,3.7-1.165s2.389-0.3,4.167-0.3c4.756,0,8.322,0.535,10.7,1.605c2.377,1.071,4.389,2.576,6.033,4.516
			c1.645,1.94,2.801,3.969,3.467,6.088c0.667,2.119,1,5.429,1,9.934c0,5.084-0.044,8.318-0.133,9.699
			c-0.045,0.535-0.066,1.182-0.066,1.94l0.066,6.889c0.044,7.539,0.167,12.199,0.368,13.982s0.604,2.932,1.209,3.445
			c0.604,0.512,1.937,0.836,3.996,0.969C251.742,167.637,252.997,167.746,254.742,167.916z"/>
	</g>
</g>
</svg>
