<?xml version="1.0" encoding="utf-8"?>
<!-- Generator: Adobe Illustrator 15.1.0, SVG Export Plug-In . SVG Version: 6.00 Build 0)  -->
<!DOCTYPE svg PUBLIC "-//W3C//DTD SVG 1.1//EN" "http://www.w3.org/Graphics/SVG/1.1/DTD/svg11.dtd">
<svg version="1.1" id="Ebene_2" xmlns="http://www.w3.org/2000/svg" xmlns:xlink="http://www.w3.org/1999/xlink" x="0px" y="0px"
	 width="50px" height="50px" viewBox="0 0 50 50" enable-background="new 0 0 50 50" xml:space="preserve">
<g opacity="0.77">
	<path fill="none" d="M104.719,71.523c0,1.256-1.019,2.275-2.275,2.275h-52.34c-1.256,0-2.275-1.02-2.275-2.275V19.184
		c0-1.257,1.02-2.275,2.275-2.275h52.34c1.257,0,2.275,1.019,2.275,2.275V71.523z"/>
</g>
<g>
	<circle opacity="0.75" fill="#E53029" stroke="#E53029" stroke-width="2.5839" cx="32.961" cy="34.864" r="8.394"/>
	<circle opacity="0.77" fill="#E2E03F" stroke="#E2E03F" stroke-width="2.5839" cx="19.029" cy="34.936" r="8.394"/>
	<circle opacity="0.78" fill="#3DBBD2" stroke="#3DBBD2" stroke-width="2.9374" cx="11.439" cy="24.617" r="9.543"/>
	<circle id="XMLID_1_" opacity="0.86" fill="#E62686" stroke="#E62686" stroke-width="2.5839" cx="20.417" cy="15.439" r="9.198"/>
	<circle opacity="0.81" fill="#78BC75" stroke="#78BC75" stroke-width="2.5839" cx="37.831" cy="23.656" r="10.475"/>
	<circle opacity="0.86" fill="#0F71B7" stroke="#0F71B7" stroke-width="2.5839" cx="33.075" cy="15.371" r="9.313"/>
	<g>
		<g>
			<path fill="#FFFFFF" stroke="#FFFFFF" stroke-width="0.4594" stroke-miterlimit="10" d="M7.008,26.277h1.066
				c0.044,0.995,0.089,1.622,0.134,1.879c0.399,0.489,0.84,0.852,1.319,1.087c0.48,0.236,1.031,0.354,1.653,0.354
				c0.836,0,1.476-0.2,1.92-0.601s0.667-0.886,0.667-1.455c0-0.374-0.073-0.684-0.22-0.928c-0.146-0.245-0.442-0.47-0.887-0.675
				c-0.347-0.124-1.012-0.293-1.993-0.507c-0.982-0.214-1.728-0.449-2.233-0.707c-0.507-0.257-0.902-0.642-1.188-1.152
				c-0.284-0.511-0.426-1.108-0.426-1.792c0-1.226,0.462-2.245,1.387-3.058c0.924-0.812,2.253-1.22,3.986-1.22
				c0.72,0,1.382,0.062,1.986,0.188c0.604,0.124,1.151,0.311,1.641,0.56l0.04,0.134c-0.054,0.311-0.094,0.626-0.12,0.946
				c-0.027,0.32-0.066,1.075-0.12,2.267l-1.04-0.014c-0.009-0.098-0.022-0.263-0.04-0.495c-0.026-0.402-0.08-0.791-0.159-1.166
				c-0.275-0.357-0.614-0.625-1.018-0.804s-0.876-0.269-1.416-0.269c-0.754,0-1.337,0.17-1.749,0.508s-0.618,0.743-0.618,1.215
				c0,0.48,0.093,0.837,0.279,1.068c0.188,0.231,0.463,0.404,0.827,0.521c0.364,0.115,1.038,0.265,2.021,0.447
				c0.981,0.183,1.642,0.336,1.979,0.46c0.489,0.188,0.88,0.423,1.174,0.708c0.293,0.284,0.518,0.639,0.673,1.061
				c0.155,0.423,0.233,0.888,0.233,1.396c0,1.325-0.514,2.442-1.54,3.35s-2.469,1.361-4.326,1.361c-0.623,0-1.228-0.056-1.813-0.166
				c-0.587-0.111-1.303-0.313-2.147-0.607l-0.146-0.199c0.071-0.685,0.115-1.169,0.134-1.454L7.008,26.277z"/>
			<path fill="#FFFFFF" stroke="#FFFFFF" stroke-width="0.4594" stroke-miterlimit="10" d="M16.779,39.317
				c0.196-0.844,0.323-1.434,0.382-1.769l0.26-1.75l0.451-0.087c0.288,0.3,0.618,0.565,0.988,0.797
				c0.45,0.196,0.936,0.295,1.455,0.295c0.602,0,1.156-0.206,1.665-0.616c0.508-0.411,1.074-1.311,1.698-2.699l0.693-1.666
				l-5.616-14.414c-0.335-0.855-0.653-1.385-0.953-1.587c-0.301-0.202-0.873-0.298-1.717-0.286v-1.352
				c1.133,0.046,2.52,0.069,4.16,0.069c1.941,0,3.669-0.023,5.183-0.069v1.352H25.03c-0.717-0.012-1.213,0.069-1.49,0.243
				c-0.174,0.115-0.26,0.266-0.26,0.451c0,0.208,0.057,0.463,0.173,0.763l0.85,2.343l2.532,6.595l1.533-3.594
				c1.484-3.562,2.227-5.621,2.227-6.176c0-0.116-0.029-0.209-0.087-0.278c-0.081-0.092-0.226-0.161-0.434-0.208
				c-0.416-0.08-0.971-0.127-1.664-0.139v-1.352c0.739,0.046,1.67,0.069,2.791,0.069c1.363,0,2.635-0.023,3.813-0.069v1.352h-0.277
				c-0.312-0.012-0.606,0.047-0.884,0.174c-0.174,0.069-0.327,0.185-0.46,0.347s-0.459,0.798-0.979,1.908
				c-0.683,1.457-1.231,2.659-1.647,3.608c-1.294,2.938-2.114,4.822-2.461,5.654l-2.791,6.816c-0.855,2.07-1.763,3.545-2.722,4.424
				c-0.959,0.891-2.126,1.336-3.501,1.336c-0.45,0-0.864-0.035-1.239-0.104C17.678,39.629,17.253,39.502,16.779,39.317z"/>
			<path fill="#FFFFFF" stroke="#FFFFFF" stroke-width="0.4594" stroke-miterlimit="10" d="M48.867,29.488v0.988
				c-1.212-0.062-2.201-0.093-2.967-0.093c-0.883,0-1.649,0.031-2.3,0.093l-0.24-0.24c0.018-0.187,0.075-0.955,0.173-2.307
				l0.067-2.187V24.69c0-1.556-0.061-2.578-0.181-3.067c-0.12-0.488-0.366-0.882-0.739-1.18c-0.374-0.298-0.872-0.446-1.494-0.446
				s-1.138,0.148-1.546,0.446c-0.409,0.299-0.667,0.599-0.773,0.9c-0.062,0.177-0.089,0.887-0.08,2.129v2.237
				c0,0.647,0.021,1.442,0.066,2.383c0.009,0.417,0.044,0.692,0.106,0.825c0.044,0.098,0.101,0.168,0.172,0.213
				c0.105,0.071,0.313,0.138,0.622,0.199c0.106,0.019,0.478,0.054,1.113,0.106v1.04c-0.97-0.035-2.156-0.053-3.561-0.053
				c-1.627,0-2.889,0.018-3.786,0.053v-1.04c0.693,0,1.173-0.049,1.439-0.146c0.125-0.045,0.218-0.12,0.28-0.227
				c0.089-0.168,0.138-0.487,0.146-0.957l0.054-1.184c0.009-0.248,0.013-0.651,0.013-1.21v-1.742c0-0.788-0.021-1.746-0.066-2.872
				c-0.026-0.566-0.064-0.888-0.114-0.964c-0.049-0.075-0.127-0.131-0.234-0.166c-0.171-0.062-0.677-0.106-1.518-0.133v-1.04
				c1.617-0.275,2.68-0.48,3.187-0.613c0.507-0.134,1.08-0.347,1.72-0.641l0.36,0.16v2.149l2.427-1.949
				c0.293-0.116,0.54-0.193,0.739-0.233c0.2-0.04,0.479-0.06,0.834-0.06c0.951,0,1.664,0.106,2.14,0.32
				c0.476,0.215,0.878,0.516,1.207,0.903c0.329,0.389,0.56,0.794,0.693,1.218c0.133,0.424,0.2,1.086,0.2,1.986
				c0,1.018-0.009,1.664-0.027,1.94c-0.009,0.106-0.013,0.236-0.013,0.388L47,25.744c0.009,1.508,0.034,2.439,0.074,2.797
				c0.04,0.356,0.121,0.586,0.241,0.688c0.121,0.103,0.388,0.167,0.8,0.194C48.267,29.433,48.518,29.454,48.867,29.488z"/>
		</g>
	</g>
</g>
</svg>
